PathFileType	4	(X/Y/Z)	./resultDataOpenSim/trcMotMarkerGrf/sub10/qtm-05-02.trc
DataRate	CameraRate	NumFrames	NumMarkers	Units	OrigDataRate	OrigDataStartFrame	OrigNumFrames
250.000000	250.000000	14	24	m	250.000000	266	530
Frame#	Time	L.Toe.Tip			R.Toe.Tip			L.Ankle.Lat			R.Ankle.Lat			L.Ankle.Med			R.Ankle.Med			L.Heel			R.Heel			L.Knee.Lat			R.Knee.Lat			L.Knee.Med			R.Knee.Med			L.Thigh.Upper			R.Thigh.Upper			L.ASIS			R.ASIS			V.Sacral			L.Acromium			R.Acromium			C7			L.Elbow			R.Elbow			L.Wrist.Lat			R.Wrist.Lat
		X1	Y1	Z1	X2	Y2	Z2	X3	Y3	Z3	X4	Y4	Z4	X5	Y5	Z5	X6	Y6	Z6	X7	Y7	Z7	X8	Y8	Z8	X9	Y9	Z9	X10	Y10	Z10	X11	Y11	Z11	X12	Y12	Z12	X13	Y13	Z13	X14	Y14	Z14	X15	Y15	Z15	X16	Y16	Z16	X17	Y17	Z17	X18	Y18	Z18	X19	Y19	Z19	X20	Y20	Z20	X21	Y21	Z21	X22	Y22	Z22	X23	Y23	Z23	X24	Y24	Z24

266	1.06	0.033539679	-0.056074554	-0.020425262	0.40494731	0.091448472	0.14477508	-0.091797688	-0.0019247817	-0.07075977	0.26282933	0.10963947	0.1417169	-0.088516589	0.024496952	0.0088309466	0.30503337	0.13180886	0.06430172	-0.161493	-0.01530379	-0.031843759	0.22731578	0.079792252	0.084397116	-0.020605389	0.37942016	-0.10934681	0.32645949	0.50450663	0.15695993	-0.020685643	0.35818506	0.012378141	0.34675695	0.51508162	0.03074297	0.04952305	0.76943545	-0.16797799	0.080493127	0.82782738	0.2091177	0.12757101	0.8749703	-0.11300707	0.13542231	0.90455865	0.12581091	-0.058996478	0.91607417	0.020112874	0.11751485	1.3607859	-0.14757521	0.086110295	1.3619931	0.16756257	0.026513354	1.3901404	-0.0078151833	0.10618965	1.03	-0.28325013	-0.074753391	1.0556418	0.19498777	0.32882223	0.93978148	-0.20611	-0.02068222	0.8263856	0.261687
267	1.064	0.033496062	-0.056106407	-0.020280764	0.423415	0.091349552	0.14259241	-0.092029266	-0.0016169179	-0.069592835	0.28086402	0.10715254	0.14164959	-0.088129135	0.024749566	0.0099036384	0.32178282	0.13057196	0.063958003	-0.16148989	-0.014772719	-0.030391116	0.24532055	0.076935003	0.084705509	-0.018940766	0.37920433	-0.1086224	0.33287491	0.50438477	0.1565753	-0.018803694	0.35813703	0.013148933	0.35204266	0.51480452	0.030558209	0.052223913	0.76901319	-0.16756234	0.087180852	0.82844779	0.20939921	0.1306343	0.87473089	-0.11354835	0.14103324	0.90455658	0.12529831	-0.057476341	0.917071	0.02363456	0.12214669	1.3603647	-0.14766122	0.091844286	1.3613663	0.16760779	0.031643731	1.3895849	-0.0074156707	0.11416495	1.0290955	-0.28241674	-0.071602516	1.0568839	0.1948879	0.33781296	0.94281749	-0.20386603	-0.021226317	0.8270906	0.26231157
268	1.068	0.033446975	-0.056163201	-0.020108023	0.44165884	0.091283205	0.14024574	-0.092183477	-0.0013640362	-0.068426051	0.29875867	0.10483602	0.14156705	-0.087762489	0.024932936	0.011019977	0.33838644	0.12941121	0.063618878	-0.16149014	-0.014294939	-0.028884412	0.26311299	0.074350503	0.084927575	-0.017127186	0.378917	-0.10786901	0.3391876	0.50399927	0.15622147	-0.016776102	0.35802392	0.013935598	0.35743009	0.51424562	0.030340425	0.055136625	0.76851297	-0.1674003	0.09413187	0.82900411	0.20979905	0.13363028	0.87442361	-0.11407371	0.14666663	0.90450362	0.12476349	-0.054648382	0.91752867	0.026445252	0.12679249	1.3598517	-0.14775936	0.097560869	1.3606172	0.16764967	0.036751572	1.3889558	-0.0070033439	0.12219345	1.028148	-0.28152877	-0.068603379	1.0580448	0.19503325	0.34677115	0.94581646	-0.20161065	-0.021861035	0.82770531	0.26293785
269	1.072	0.033393738	-0.056235371	-0.01991952	0.45968386	0.091254821	0.13774958	-0.092232558	-0.0011996516	-0.067255699	0.31650167	0.10268763	0.14145998	-0.087417889	0.025064359	0.012186065	0.3547598	0.12834611	0.06325157	-0.16149674	-0.013862611	-0.027345573	0.28066468	0.07200368	0.085133126	-0.015185438	0.37856152	-0.10709266	0.34550173	0.50342263	0.15591398	-0.014599031	0.35784514	0.014728183	0.36289691	0.51341332	0.030089	0.058167014	0.76792589	-0.16739258	0.10122169	0.82944987	0.21024082	0.13648883	0.87409007	-0.11467924	0.15230798	0.9043875	0.12419642	-0.050563029	0.91739436	0.02857193	0.13145872	1.3592428	-0.14786707	0.10326139	1.3597588	0.16768297	0.041879012	1.3882379	-0.0066452138	0.13018438	1.0271391	-0.28069413	-0.065647216	1.0591016	0.19530101	0.35567694	0.94879925	-0.19936626	-0.02249498	0.8282349	0.26357426
270	1.076	0.033331349	-0.056306899	-0.019713197	0.47748972	0.091250723	0.13512699	-0.092179132	-0.0011300526	-0.066088188	0.3340653	0.10071402	0.14131857	-0.087098434	0.025152948	0.013397478	0.37088317	0.12740706	0.062851914	-0.16151638	-0.013468845	-0.025796192	0.29796823	0.069854541	0.085349143	-0.013128812	0.37814113	-0.10629237	0.3518314	0.50267952	0.15563925	-0.012257122	0.35761046	0.015529297	0.36841936	0.51231852	0.029803677	0.061237937	0.76724679	-0.1674537	0.10817764	0.82970824	0.21055696	0.13920916	0.87372666	-0.11537932	0.15793604	0.90418946	0.12358598	-0.046389522	0.91687188	0.030471464	0.13615734	1.3585307	-0.14797343	0.10895663	1.3587984	0.16770119	0.04703306	1.3874226	-0.0063555898	0.1380815	1.0260636	-0.27999154	-0.062615987	1.0600342	0.19555028	0.36451171	0.95177069	-0.19714212	-0.022924598	0.82871771	0.26427109
271	1.08	0.033252397	-0.056373529	-0.019483212	0.49504659	0.091289898	0.13240983	-0.09209082	-0.001099392	-0.064937384	0.35142061	0.098921093	0.14114184	-0.086809106	0.025201819	0.014641733	0.38676321	0.12660219	0.062427072	-0.1615571	-0.013110408	-0.024241433	0.3150292	0.067872962	0.085544911	-0.010966954	0.37766636	-0.10547312	0.35812738	0.50174717	0.15537184	-0.0097380205	0.35732781	0.016340601	0.37398123	0.51097712	0.029477086	0.064315771	0.76647936	-0.16754486	0.11481222	0.82972808	0.21062972	0.14187762	0.87329889	-0.11607102	0.16355313	0.90390508	0.12293475	-0.04315959	0.91595895	0.032222983	0.14088958	1.357711	-0.14807449	0.11465111	1.3577346	0.16770036	0.052200374	1.3865141	-0.0061182684	0.14593403	1.0249233	-0.27933643	-0.059451211	1.0608352	0.19573552	0.37327962	0.95472116	-0.19492509	-0.023004676	0.82920044	0.26508216
272	1.084	0.033150609	-0.056453814	-0.019228935	0.51228929	0.091454046	0.12963857	-0.092063351	-0.0010351472	-0.063799093	0.36854256	0.097306677	0.14093372	-0.086557835	0.025214304	0.015901796	0.40238649	0.12591707	0.061979738	-0.16162463	-0.012786261	-0.022679645	0.33184417	0.066038631	0.085693322	-0.0087146762	0.37715515	-0.10465285	0.36436178	0.50060132	0.15509904	-0.0070423738	0.35699909	0.017158394	0.37956662	0.50940782	0.029104566	0.067394151	0.76563401	-0.16765162	0.12116968	0.82951063	0.21048247	0.14458791	0.87279044	-0.11668104	0.16919908	0.90354871	0.12226495	-0.040583384	0.91431656	0.033072706	0.1456421	1.3567856	-0.1481801	0.12034037	1.356568	0.16768057	0.057365462	1.3855208	-0.0059108764	0.15385315	1.0237266	-0.27855622	-0.056177255	1.061501	0.19587096	0.38200081	0.95762769	-0.19269235	-0.022798677	0.82968824	0.2660118
273	1.088	0.033021266	-0.056559585	-0.018947803	0.52914747	0.091843203	0.12685875	-0.092142901	-0.00092121607	-0.062649561	0.3854049	0.095859118	0.14069612	-0.086349677	0.025198159	0.017160266	0.41772083	0.12533805	0.061505513	-0.16171694	-0.012495493	-0.021123295	0.34839367	0.064334602	0.085800407	-0.0063981759	0.37662179	-0.10385846	0.37054597	0.49923973	0.1548216	-0.004183429	0.35662198	0.017974364	0.38516667	0.50763869	0.028695843	0.070476994	0.76472147	-0.16776455	0.12742403	0.82908701	0.21021884	0.14740242	0.87221528	-0.11723412	0.17493464	0.90313305	0.12160186	-0.037222774	0.91180018	0.032115336	0.15040965	1.3557591	-0.14829864	0.12602328	1.3553079	0.16764546	0.062519149	1.3844482	-0.0057194602	0.16189108	1.0224927	-0.27758217	-0.052875297	1.0620239	0.19595493	0.39068657	0.96047312	-0.19043107	-0.022450047	0.8301471	0.26702618
274	1.092	0.032862574	-0.056667761	-0.018642181	0.54558364	0.092508565	0.12410793	-0.09231172	-0.00079227771	-0.06147632	0.40197954	0.09455805	0.14042039	-0.086177224	0.025165252	0.018406529	0.43273065	0.12486436	0.060993349	-0.16182648	-0.012231637	-0.019597383	0.36465542	0.062743584	0.085883117	-0.0040421901	0.37606748	-0.10311057	0.37670476	0.49767993	0.15454713	-0.0011796564	0.35619396	0.01877591	0.39078428	0.50570738	0.028267604	0.073568533	0.76374782	-0.16787605	0.13371833	0.8284912	0.20992039	0.1503535	0.87159646	-0.11778758	0.18079814	0.90266003	0.12095565	-0.032340513	0.90902218	0.029700361	0.15521041	1.354634	-0.14842804	0.13170586	1.353963	0.16759649	0.067659599	1.3833013	-0.0055379829	0.16998636	1.0212431	-0.27649675	-0.049592807	1.0624049	0.19599119	0.39933368	0.96326044	-0.188146	-0.022006309	0.83054943	0.26809446
275	1.096	0.032678001	-0.056748065	-0.01833289	0.5615915	0.093446871	0.12140852	-0.092524731	-0.00067982095	-0.0602959	0.41823766	0.09337855	0.14006908	-0.085997804	0.025133329	0.019653733	0.44738215	0.12450209	0.060426075	-0.16194699	-0.011984112	-0.01812821	0.38061191	0.061249793	0.085952999	-0.0016615612	0.37548302	-0.10241808	0.38285721	0.49594571	0.15428361	0.0019466481	0.35571142	0.019543347	0.39642652	0.50364534	0.027829095	0.076667737	0.76271578	-0.16798078	0.14010771	0.82774285	0.20961304	0.15344617	0.87095024	-0.11837791	0.18675879	0.90213045	0.12030987	-0.026749775	0.90679773	0.027511838	0.16006715	1.3534112	-0.14856821	0.13739382	1.3525344	0.16753173	0.072789354	1.382086	-0.0053626271	0.17804482	1.0200032	-0.27541789	-0.046295331	1.0626642	0.19602954	0.40792291	0.96599473	-0.18585689	-0.021454842	0.83089081	0.26919904
276	1.1	0.032476188	-0.056799309	-0.018043986	0.57716877	0.094642968	0.11877919	-0.092737788	-0.00059200243	-0.059141857	0.43412363	0.092309438	0.13960502	-0.085710837	0.025130382	0.020947125	0.46164505	0.12424949	0.059793573	-0.16207174	-0.011749873	-0.01673426	0.39624398	0.059841426	0.086016469	0.00072114893	0.37485909	-0.10179097	0.38901897	0.49405982	0.15403463	0.0051699973	0.35516451	0.020255651	0.40209895	0.5014668	0.027383907	0.079769862	0.76162672	-0.16807253	0.14658274	0.82683885	0.20928626	0.15667203	0.87028348	-0.11901543	0.19270212	0.90153752	0.11961291	-0.021368762	0.90511194	0.026943234	0.16498494	1.3520969	-0.14872835	0.14308401	1.3510214	0.16745238	0.077912243	1.3808047	-0.0051947105	0.18603523	1.0187923	-0.27439563	-0.042935585	1.0628321	0.19612219	0.41642059	0.96866613	-0.1835882	-0.020796683	0.83117909	0.27033074
277	1.104	0.032269451	-0.05683615	-0.017782687	0.59230278	0.096093689	0.1162447	-0.092917294	-0.00052454301	-0.05804734	0.44956458	0.091367588	0.13906493	-0.085226966	0.025176348	0.022318663	0.47549648	0.12408482	0.059111057	-0.16219231	-0.011530949	-0.015422089	0.41152975	0.058511838	0.086074116	0.0031008868	0.37418899	-0.10122051	0.39520953	0.49204702	0.15380308	0.0084743637	0.35454488	0.020908997	0.40780693	0.49917645	0.026935305	0.082871407	0.76047963	-0.16814137	0.15311626	0.825767	0.20891854	0.16002267	0.86959747	-0.11969586	0.19852134	0.90084741	0.11881732	-0.0162797	0.90330867	0.028044348	0.1699523	1.3507054	-0.14891542	0.14876854	1.3494314	0.16736106	0.083033691	1.3794594	-0.0050425019	0.19397741	1.0175855	-0.27341142	-0.039514086	1.0629333	0.19627677	0.42480434	0.97125995	-0.18135132	-0.020033926	0.83142471	0.2714881
278	1.108	0.032069644	-0.056868348	-0.017546357	0.60697381	0.097790844	0.11382272	-0.093041145	-0.00047006322	-0.057032683	0.46454099	0.090576146	0.13853906	-0.084610769	0.025241793	0.023709008	0.4889278	0.12397573	0.058408829	-0.16230721	-0.011321667	-0.014199938	0.42645349	0.0572584	0.086121651	0.0055285665	0.37346699	-0.10065973	0.40144582	0.48993388	0.1535942	0.011855671	0.35385528	0.021518599	0.41355011	0.49678186	0.026481975	0.085969689	0.75927117	-0.16817365	0.15969497	0.82452328	0.20849501	0.16349255	0.86889216	-0.12041155	0.20430089	0.90003084	0.11797543	-0.011272489	0.9010129	0.030010918	0.17495193	1.3492532	-0.14912567	0.15445296	1.3477811	0.16725594	0.088163076	1.3780588	-0.0049139842	0.2018919	1.0163245	-0.27241688	-0.036054297	1.0629776	0.19646279	0.43308174	0.97377668	-0.17913912	-0.019149488	0.83163684	0.27267633
279	1.112	0.031882592	-0.056905628	-0.017338836	0.6211684	0.099694715	0.11150512	-0.093103726	-0.00042180756	-0.056104774	0.47909061	0.08993233	0.1380708	-0.08406486	0.02525807	0.024981693	0.50194916	0.12390259	0.057701055	-0.16242351	-0.011112421	-0.013090367	0.44101134	0.056078826	0.08615274	0.0080567764	0.37269425	-0.10007407	0.40773545	0.48774605	0.15341206	0.015305362	0.35310124	0.022096832	0.41931995	0.49429862	0.026018515	0.089064845	0.75799928	-0.16816475	0.16632261	0.82310774	0.20801462	0.16707815	0.86816805	-0.12115635	0.2102173	0.89910646	0.11718976	-0.0062597822	0.89834153	0.032098845	0.17996848	1.3477509	-0.1493493	0.16015437	1.3460874	0.16713336	0.093310529	1.376613	-0.0048113555	0.20978907	1.0149766	-0.27135639	-0.032568437	1.0629578	0.19663031	0.44127349	0.97623261	-0.17694029	-0.01810861	0.83182543	0.27390577
